<?xml version="1.0" standalone="no"?>
<!DOCTYPE svg PUBLIC "-//W3C//DTD SVG 20010904//EN"
 "http://www.w3.org/TR/2001/REC-SVG-20010904/DTD/svg10.dtd">
<svg version="1.0" xmlns="http://www.w3.org/2000/svg"
 width="400.000000pt" height="75.000000pt" viewBox="0 0 400.000000 75.000000"
 preserveAspectRatio="xMidYMid meet">
<metadata>
Created by potrace 1.11, written by Peter Selinger 2001-2013
</metadata>
<g transform="translate(0.000000,75.000000) scale(0.100000,-0.100000)"
fill="#000000" stroke="none">
<path d="M5 740 c3 -5 17 -10 30 -10 12 0 26 -7 29 -16 11 -28 7 -654 -4 -675
-6 -10 -20 -19 -30 -19 -11 0 -20 -4 -20 -10 0 -6 100 -10 279 -10 l280 0 11
55 c15 75 9 102 -13 52 -23 -54 -61 -67 -194 -67 -122 1 -191 11 -204 31 -5 8
-9 157 -9 332 0 294 1 318 18 323 59 19 49 23 -61 23 -76 1 -116 -3 -112 -9z"/>
<path d="M851 363 c-62 -164 -123 -308 -134 -321 -11 -12 -31 -22 -43 -22 -13
0 -26 -5 -29 -10 -4 -6 31 -10 97 -10 98 1 102 1 75 16 -33 18 -33 18 15 157
l31 88 100 -3 101 -3 43 -110 c23 -60 40 -118 37 -127 -5 -16 4 -18 86 -18 58
0 89 4 85 10 -3 6 -16 10 -29 10 -44 0 -49 10 -211 403 -53 130 -101 237 -104
237 -4 0 -58 -134 -120 -297z m116 -61 c-44 -2 -82 -1 -84 2 -5 5 38 142 65
206 l14 35 42 -120 43 -120 -80 -3z"/>
<path d="M2149 359 c-62 -165 -122 -309 -132 -320 -10 -10 -29 -19 -42 -19
-13 0 -27 -5 -30 -10 -4 -6 31 -10 97 -10 97 1 101 2 75 16 -32 17 -31 20 16
157 l30 88 100 -3 101 -3 43 -110 c23 -60 40 -118 37 -127 -5 -16 4 -18 87
-18 93 0 104 6 46 25 -40 13 -58 49 -198 388 -55 136 -104 247 -108 247 -4 0
-59 -135 -122 -301z m118 -57 c-44 -2 -82 -1 -84 2 -5 5 38 142 65 206 l14 35
42 -120 43 -120 -80 -3z"/>
<path d="M1421 587 c-13 -77 -13 -77 -2 -77 5 0 14 14 21 31 23 55 45 62 223
67 l161 5 -49 -69 c-27 -38 -126 -169 -220 -292 -93 -123 -171 -230 -173 -238
-3 -12 33 -14 241 -14 l245 0 5 23 c11 46 19 122 12 115 -4 -3 -14 -21 -23
-40 -11 -22 -29 -37 -52 -45 -34 -11 -310 -19 -310 -8 0 3 22 36 49 73 141
193 360 516 355 524 -3 4 -110 8 -239 8 l-233 0 -11 -63z"/>
<path d="M2670 641 c0 -6 10 -11 23 -11 46 0 47 -8 47 -291 0 -266 -6 -319
-34 -319 -8 0 -18 -5 -21 -10 -4 -6 32 -10 101 -10 66 0 104 4 99 9 -6 5 -21
11 -35 13 -30 4 -39 40 -39 166 l-1 82 73 0 73 0 84 -112 c109 -144 130 -158
229 -157 74 0 77 9 10 23 -40 9 -74 40 -169 159 l-89 111 35 39 c95 104 85
239 -21 292 -33 16 -67 20 -202 23 -116 3 -163 1 -163 -7z m255 -32 c58 -16
112 -74 120 -130 8 -53 -8 -122 -35 -149 -23 -23 -99 -35 -153 -24 l-42 9 -3
147 c-2 133 -1 147 15 151 32 8 57 7 98 -4z"/>
<path d="M3400 640 c0 -5 13 -10 30 -10 19 0 33 -7 40 -19 6 -12 10 -122 10
-286 0 -164 -4 -274 -10 -286 -6 -11 -21 -19 -35 -19 -13 0 -27 -4 -30 -10
-11 -17 312 -13 373 5 100 30 178 114 207 226 20 73 19 126 -4 198 -34 111
-105 173 -225 198 -73 15 -356 18 -356 3z m367 -57 c109 -51 158 -146 151
-292 -6 -119 -45 -188 -131 -232 -43 -22 -147 -35 -201 -25 l-36 7 2 282 3
282 35 6 c55 9 121 -1 177 -28z"/>
</g>
</svg>
