<svg width="100%" height="100%" viewBox="0 0 670 60" version="1.1" xmlns="http://www.w3.org/2000/svg" xmlns:xlink="http://www.w3.org/1999/xlink" xml:space="preserve" style="fill-rule:evenodd;clip-rule:evenodd;stroke-linejoin:round;stroke-miterlimit:2;">
    <g transform="matrix(1,0,0,1,3.40729,-12.387)">
        <g transform="matrix(0.844316,0,0,0.844316,-150.531,-66.7527)">
            <g transform="matrix(0.66371,0,0,0.713374,109.608,-7.47415)">
                <rect x="132" y="160" width="111" height="63" style="fill:rgb(64,124,191);"></rect>
            </g>
            <g transform="matrix(0.98688,-0.0863408,0.0863408,0.98688,-8.30581,19.8557)">
                <g transform="matrix(-0.188772,0.0332855,-0.0332391,-0.188508,271.922,120.26)">
                    <path d="M106.82,-5.828C121.906,27.969 147.574,78.289 157.531,86.543C167.492,94.797 243.137,106.258 274.184,81.684C305.227,57.105 297.426,11.125 297.426,11.125L225.422,-9.715L106.82,-5.828" style="fill:white;fill-rule:nonzero;"></path>
                </g>
                <g transform="matrix(-0.188772,0.0332855,-0.0332391,-0.188508,277.159,149.959)">
                    <path d="M98.055,137.855C63.504,155.777 15.492,169.531 2.852,158.98C-9.789,148.43 18.523,84.559 109.637,102.469C204.914,121.199 239.574,133.484 297.426,168.672C232.754,157.918 122.277,117.621 84.035,117.805C105.91,130.754 98.055,137.855 98.055,137.855" style="fill:white;fill-rule:nonzero;"></path>
                </g>
                <g transform="matrix(-0.188772,0.0332855,-0.0332391,-0.188508,276.166,144.331)">
                    <path d="M78.703,87.781C78.703,87.781 95.941,100.926 106.82,121.859C159.051,139.664 228.664,122.672 228.664,122.672C228.664,122.672 104.578,84.566 78.703,87.781" style="fill-rule:nonzero;"></path>
                </g>
                <g transform="matrix(-0.188772,0.0332855,-0.0332391,-0.188508,277.205,150.219)">
                    <path d="M97.582,101.988C163.316,105.375 260.867,37.504 358.238,54.766C455.613,72.023 403.969,217.965 297.426,170.051C197.578,125.145 97.582,101.988 97.582,101.988" style="fill:white;fill-rule:nonzero;"></path>
                </g>
                <g transform="matrix(-0.188772,0.0332855,-0.0332391,-0.188508,279.336,162.307)">
                    <path d="M109.637,167.969C109.637,167.969 289.711,192.207 301.676,159.793C313.641,127.383 109.637,167.969 109.637,167.969" style="fill-rule:nonzero;"></path>
                </g>
            </g>
        </g>
        <g transform="matrix(1,0,0,1,-103.524,-200.405)">
            <text x="185.634px" y="261.317px" style="font-family:'GoudyOldStyleT-Bold', 'Goudy Old Style', serif;font-weight:700;font-stretch:semi-expanded;font-size:56px;">W</text>
            <text x="234.681px" y="261.317px" style="font-family:'GoudyOldStyleT-Bold', 'Goudy Old Style', serif;font-weight:700;font-stretch:semi-expanded;font-size:40px;">H</text>
            <text x="263.623px" y="261.317px" style="font-family:'GoudyOldStyleT-Bold', 'Goudy Old Style', serif;font-weight:700;font-stretch:semi-expanded;font-size:40px;">I</text>
            <text x="275.724px" y="261.317px" style="font-family:'GoudyOldStyleT-Bold', 'Goudy Old Style', serif;font-weight:700;font-stretch:semi-expanded;font-size:40px;">T<tspan x="300.247px" y="261.317px">E</tspan></text>
            <text x="322.602px" y="261.317px" style="font-family:'GoudyOldStyleT-Bold', 'Goudy Old Style', serif;font-weight:700;font-stretch:semi-expanded;font-size:56px;">H</text>
            <text x="364.408px" y="261.317px" style="font-family:'GoudyOldStyleT-Bold', 'Goudy Old Style', serif;font-weight:700;font-stretch:semi-expanded;font-size:40px;">A<tspan x="386.347px" y="261.317px">T</tspan></text>
        </g>
        <g transform="matrix(1.00574,0,0,1,312.036,-177.696)">
            <text x="-0.226px" y="238.735px" style="font-family:'HelveticaNeueLTPro-Roman', 'Helvetica Neue LT Pro', sans-serif;font-size:36px;fill:rgb(64,124,191);">G<tspan x="25.298px 48.158px" y="238.735px 238.735px">RO</tspan></text>
            <text x="73.718px" y="238.735px" style="font-family:'HelveticaNeueLTPro-Roman', 'Helvetica Neue LT Pro', sans-serif;font-size:36px;fill:rgb(64,124,191);">W</text>
            <text x="107.054px" y="238.735px" style="font-family:'HelveticaNeueLTPro-Roman', 'Helvetica Neue LT Pro', sans-serif;font-size:36px;fill:rgb(64,124,191);">T<tspan x="126.818px" y="238.735px">H</tspan></text>
            <text x="161.018px" y="238.735px" style="font-family:'HelveticaNeueLTPro-Roman', 'Helvetica Neue LT Pro', sans-serif;font-size:36px;fill:rgb(64,124,191);">P</text>
            <text x="179.378px" y="238.735px" style="font-family:'HelveticaNeueLTPro-Roman', 'Helvetica Neue LT Pro', sans-serif;font-size:36px;fill:rgb(64,124,191);">A<tspan x="200.906px" y="238.735px">R</tspan></text>
            <text x="223.766px" y="238.735px" style="font-family:'HelveticaNeueLTPro-Roman', 'Helvetica Neue LT Pro', sans-serif;font-size:36px;fill:rgb(64,124,191);">T</text>
            <text x="243.53px" y="238.735px" style="font-family:'HelveticaNeueLTPro-Roman', 'Helvetica Neue LT Pro', sans-serif;font-size:36px;fill:rgb(64,124,191);">N</text>
            <text x="267.722px" y="238.735px" style="font-family:'HelveticaNeueLTPro-Roman', 'Helvetica Neue LT Pro', sans-serif;font-size:36px;fill:rgb(64,124,191);">E</text>
            <text x="288.818px" y="238.735px" style="font-family:'HelveticaNeueLTPro-Roman', 'Helvetica Neue LT Pro', sans-serif;font-size:36px;fill:rgb(64,124,191);">R</text>
            <text x="311.678px" y="238.735px" style="font-family:'HelveticaNeueLTPro-Roman', 'Helvetica Neue LT Pro', sans-serif;font-size:36px;fill:rgb(64,124,191);">S</text>
        </g>
    </g>
</svg>
