<?xml version="1.0" encoding="UTF-8" standalone="no"?>
<svg
   width="1000"
   height="582.06"
   data-name="Ziff Davis Logo"
   version="1.1"
   viewBox="0 0 999.99997 582.05998"
   id="svg20"
   sodipodi:docname="Ziff-Davis_Blue.svg"
   inkscape:version="1.2.2 (732a01da63, 2022-12-09)"
   xmlns:inkscape="http://www.inkscape.org/namespaces/inkscape"
   xmlns:sodipodi="http://sodipodi.sourceforge.net/DTD/sodipodi-0.dtd"
   xmlns="http://www.w3.org/2000/svg"
   xmlns:svg="http://www.w3.org/2000/svg">
  <defs
     id="defs24" />
  <sodipodi:namedview
     id="namedview22"
     pagecolor="#ffffff"
     bordercolor="#111111"
     borderopacity="1"
     inkscape:showpageshadow="0"
     inkscape:pageopacity="0"
     inkscape:pagecheckerboard="1"
     inkscape:deskcolor="#d1d1d1"
     showgrid="false"
     inkscape:zoom="0.6"
     inkscape:cx="430.83333"
     inkscape:cy="328.33333"
     inkscape:window-width="1366"
     inkscape:window-height="705"
     inkscape:window-x="-8"
     inkscape:window-y="-8"
     inkscape:window-maximized="1"
     inkscape:current-layer="svg20" />
  <g
     id="g2462">
    <path
       id="path1057"
       style="font-weight:bold;font-size:444.217px;font-family:'Helvetica Neue LT Pro';-inkscape-font-specification:'Helvetica Neue LT Pro, Bold';display:inline;opacity:1;fill:#221276;fill-opacity:1;fill-rule:evenodd;stroke-width:23.8028;stroke-linecap:round;stroke-miterlimit:2.1;paint-order:stroke fill markers"
       d="M 13.329279,0 V 58.65039 H 170.17444 L 0,262.14899 v 55.09684 H 255.25286 C 230.44098,279.15906 188.8284,258.59544 135.96138,258.59544 H 92.863443 L 263.03787,55.094873 V 0 Z M 0,346.1256 v 229.7137 h 137.73914 c 88.86366,0 143.0724,-60.42708 143.0724,-160.39871 0,-26.1451 -3.92396,-49.31178 -11.24285,-69.31499 h -78.34053 c 12.91129,16.72232 19.82494,41.29212 19.82494,75.53518 0,68.42502 -35.99095,95.52813 -79.53416,95.52813 H 69.758448 V 346.1256 Z" />
    <path
       d="M 276.66549,1.398031e-5 V 51.985521 h 63.09352 V 1.398031e-5 Z m 0,87.53115401969 V 317.24495 h 63.09352 V 87.531168 Z"
       id="path1059"
       style="font-weight:bold;font-size:444.217px;font-family:'Helvetica Neue LT Pro';-inkscape-font-specification:'Helvetica Neue LT Pro, Bold';display:inline;opacity:1;fill:#221276;fill-opacity:1;fill-rule:evenodd;stroke-width:23.8028;stroke-linecap:round;stroke-miterlimit:2.1;paint-order:stroke fill markers"
       sodipodi:nodetypes="cccccccccc" />
    <path
       d="M 453.11188,317.24491 V 129.74162 H 496.6553 V 87.531168 H 453.11188 V 74.201551 c 0,-19.550106 6.22049,-26.659235 24.43763,-26.659235 6.66481,0 14.66258,0.44432 22.66035,1.332961 V 1.7772963 C 481.54839,0.44433456 471.32902,1.398031e-5 466.88582,1.398031e-5 421.56512,1.398031e-5 390.01836,22.660364 390.01836,70.646986 v 16.884182 h -37.76725 v 42.210452 h 37.76725 v 187.50329 z"
       id="path1061"
       style="font-weight:bold;font-size:444.217px;font-family:'Helvetica Neue LT Pro';-inkscape-font-specification:'Helvetica Neue LT Pro, Bold';display:inline;opacity:1;fill:#221276;fill-opacity:1;fill-rule:evenodd;stroke-width:23.8028;stroke-linecap:round;stroke-miterlimit:2.1;paint-order:stroke fill markers" />
    <path
       d="M 579.37104,317.2449 V 129.74161 h 43.54342 V 87.531154 H 579.37104 V 74.201537 c 0,-19.550106 6.22049,-26.659235 24.43763,-26.659235 6.66481,0 14.66258,0.44432 22.66035,1.332961 V 1.7772823 C 607.80755,0.44432058 597.58818,0 593.14498,0 547.82427,0 516.27752,22.66035 516.27752,70.646972 v 16.884182 h -37.76725 v 42.210456 h 37.76725 V 317.2449 Z"
       id="path1063"
       style="font-weight:bold;font-size:444.217px;font-family:'Helvetica Neue LT Pro';-inkscape-font-specification:'Helvetica Neue LT Pro, Bold';display:inline;opacity:1;fill:#221276;fill-opacity:1;fill-rule:evenodd;stroke-width:23.8028;stroke-linecap:round;stroke-miterlimit:2.1;paint-order:stroke fill markers" />
    <path
       d="m 396.25078,339.90526 c -64.42648,0 -105.74829,26.65923 -108.41422,76.86746 h 63.09353 c 2.2216,-23.99332 15.99554,-34.657 42.21046,-34.657 21.32738,0 40.43316,4.4432 40.43316,30.65811 0,20.43875 -17.77282,23.99332 -58.65031,28.43652 -38.21157,3.99888 -59.53896,10.6637 -74.20153,23.10467 -12.88531,11.10802 -19.99444,26.65923 -19.99444,48.87526 0,44.43207 31.10244,68.86969 78.20043,68.86969 32.4354,0 59.53896,-9.77505 77.31178,-28.43652 0.44432,7.55345 2.2216,15.10691 4.44321,22.21603 h 63.98216 c -5.77617,-9.33072 -7.99777,-30.65811 -7.99777,-48.87526 V 405.22038 c 0,-42.65477 -33.32405,-65.31512 -100.41646,-65.31512 z m -52.42982,170.6191 c 0,-24.88195 19.10578,-31.99108 51.54118,-35.98997 21.3274,-2.66592 32.43541,-5.77617 38.21157,-11.10801 v 24.43763 c 0,33.76837 -17.3285,51.9855 -51.09686,51.9855 -27.54788,0 -38.65589,-11.10801 -38.65589,-29.32515 z"
       id="path1067"
       style="font-weight:bold;font-size:444.217px;font-family:'Helvetica Neue LT Pro';-inkscape-font-specification:'Helvetica Neue LT Pro, Bold';opacity:1;fill:#221276;fill-opacity:1;fill-rule:evenodd;stroke-width:23.8028;stroke-linecap:round;stroke-miterlimit:2.1;paint-order:stroke fill markers" />
    <path
       d="m 488.78893,346.12568 78.64474,229.7138 h 70.20266 l 77.75609,-229.71373 h -62.64919 l -48.43095,156.84516 h -0.88864 L 554.99269,346.12568 Z"
       id="path1069"
       style="font-weight:bold;font-size:444.217px;font-family:'Helvetica Neue LT Pro';-inkscape-font-specification:'Helvetica Neue LT Pro, Bold';opacity:1;fill:#221276;fill-opacity:1;fill-rule:evenodd;stroke-width:23.8028;stroke-linecap:round;stroke-miterlimit:2.1;paint-order:stroke fill markers"
       sodipodi:nodetypes="ccccccccc" />
    <path
       d="m 716.65304,258.5946 v 51.9855 h 63.09353 v -51.9855 z m 0,87.53115 v 229.71373 h 63.09353 V 346.12575 Z"
       id="path1071"
       style="font-weight:bold;font-size:444.217px;font-family:'Helvetica Neue LT Pro';-inkscape-font-specification:'Helvetica Neue LT Pro, Bold';opacity:1;fill:#221276;fill-opacity:1;fill-rule:evenodd;stroke-width:23.8028;stroke-linecap:round;stroke-miterlimit:2.1;paint-order:stroke fill markers" />
    <path
       d="m 892.47446,339.90526 c -64.42653,0 -99.97214,24.88195 -99.97214,73.75721 0,32.87972 21.77171,50.65255 75.09013,61.76057 49.76391,10.21937 69.31406,18.21714 69.31406,35.10132 0,19.99443 -19.99446,29.32515 -41.32183,29.32515 -26.21492,0 -48.4309,-12.88529 -48.4309,-38.65589 h -59.9833 c 1.77728,54.20712 45.32069,80.86635 107.9699,80.86635 53.76273,0 104.85962,-20.88307 104.85962,-79.9777 0,-17.3285 -5.77613,-30.65812 -17.77282,-41.32181 -13.77391,-11.55234 -30.65815,-18.66147 -77.31172,-27.9922 -35.5457,-7.10913 -49.31961,-14.66258 -49.31961,-29.32516 0,-13.77393 10.66369,-21.32738 35.10129,-21.32738 26.21491,0 41.32183,8.88641 43.09915,31.10244 h 59.98328 c -3.99893,-47.5423 -39.10021,-73.3129 -101.30511,-73.3129 z"
       id="path1073"
       style="font-weight:bold;font-size:444.217px;font-family:'Helvetica Neue LT Pro';-inkscape-font-specification:'Helvetica Neue LT Pro, Bold';display:inline;opacity:1;fill:#221276;fill-opacity:1;fill-rule:evenodd;stroke-width:23.8028;stroke-linecap:round;stroke-miterlimit:2.1;paint-order:stroke fill markers" />
  </g>
</svg>
